<mxfile host="app.diagrams.net" modified="2021-05-05T23:50:33.169Z" agent="5.0 (X11)" etag="jcCIN8sGYhE8J9U76bjC" version="14.6.10" type="github">
  <diagram id="0cBtjcEk93bD9oSTBG1Q" name="Page-1">
    <mxGraphModel dx="819" dy="475" grid="1" gridSize="10" guides="1" tooltips="1" connect="1" arrows="1" fold="1" page="1" pageScale="1" pageWidth="800" pageHeight="200" math="0" shadow="0">
      <root>
        <mxCell id="0" />
        <mxCell id="1" parent="0" />
        <mxCell id="R-yZlWLyrwHYnsbiBoYi-1" value="" style="rounded=0;whiteSpace=wrap;html=1;fillColor=#dae8fc;strokeColor=#6c8ebf;gradientColor=#ffffff;gradientDirection=east;" vertex="1" parent="1">
          <mxGeometry x="10" y="79" width="770" height="42" as="geometry" />
        </mxCell>
        <mxCell id="R-yZlWLyrwHYnsbiBoYi-2" value="Expect" style="rounded=0;whiteSpace=wrap;html=1;gradientDirection=east;fillColor=#dae8fc;strokeColor=none;" vertex="1" parent="1">
          <mxGeometry x="20" y="85" width="120" height="30" as="geometry" />
        </mxCell>
        <mxCell id="R-yZlWLyrwHYnsbiBoYi-3" value="(" style="text;html=1;strokeColor=none;fillColor=none;align=center;verticalAlign=middle;whiteSpace=wrap;rounded=0;" vertex="1" parent="1">
          <mxGeometry x="160" y="79" width="40" height="40" as="geometry" />
        </mxCell>
        <mxCell id="R-yZlWLyrwHYnsbiBoYi-4" value=")" style="text;html=1;strokeColor=none;fillColor=none;align=center;verticalAlign=middle;whiteSpace=wrap;rounded=0;" vertex="1" parent="1">
          <mxGeometry x="360" y="79" width="40" height="40" as="geometry" />
        </mxCell>
        <mxCell id="R-yZlWLyrwHYnsbiBoYi-6" value="Value that we are expecting" style="rounded=0;whiteSpace=wrap;html=1;strokeColor=#666666;gradientDirection=east;fillColor=#f5f5f5;fontColor=#333333;" vertex="1" parent="1">
          <mxGeometry x="220" y="85" width="120" height="30" as="geometry" />
        </mxCell>
        <mxCell id="R-yZlWLyrwHYnsbiBoYi-7" value="Matcher statement" style="rounded=0;whiteSpace=wrap;html=1;fillColor=#fff2cc;strokeColor=#d6b656;" vertex="1" parent="1">
          <mxGeometry x="420" y="85" width="120" height="30" as="geometry" />
        </mxCell>
        <mxCell id="R-yZlWLyrwHYnsbiBoYi-10" value="Value that we expect to see" style="rounded=0;whiteSpace=wrap;html=1;fillColor=#d5e8d4;strokeColor=#82b366;" vertex="1" parent="1">
          <mxGeometry x="620" y="85" width="120" height="30" as="geometry" />
        </mxCell>
        <mxCell id="R-yZlWLyrwHYnsbiBoYi-13" value="(" style="text;html=1;strokeColor=none;fillColor=none;align=center;verticalAlign=middle;whiteSpace=wrap;rounded=0;" vertex="1" parent="1">
          <mxGeometry x="560" y="80" width="40" height="40" as="geometry" />
        </mxCell>
        <mxCell id="R-yZlWLyrwHYnsbiBoYi-14" value=")" style="text;html=1;strokeColor=none;fillColor=none;align=center;verticalAlign=middle;whiteSpace=wrap;rounded=0;" vertex="1" parent="1">
          <mxGeometry x="760" y="80" width="20" height="40" as="geometry" />
        </mxCell>
        <mxCell id="R-yZlWLyrwHYnsbiBoYi-15" value="" style="ellipse;whiteSpace=wrap;html=1;aspect=fixed;fillColor=#000000;fontSize=8;" vertex="1" parent="1">
          <mxGeometry x="392" y="100" width="3" height="3" as="geometry" />
        </mxCell>
        <mxCell id="R-yZlWLyrwHYnsbiBoYi-20" value="" style="edgeStyle=orthogonalEdgeStyle;rounded=0;orthogonalLoop=1;jettySize=auto;html=1;fontSize=8;" edge="1" parent="1" source="R-yZlWLyrwHYnsbiBoYi-19" target="R-yZlWLyrwHYnsbiBoYi-6">
          <mxGeometry relative="1" as="geometry" />
        </mxCell>
        <mxCell id="R-yZlWLyrwHYnsbiBoYi-19" value="The thing we want verify" style="rounded=1;whiteSpace=wrap;html=1;fontSize=8;fillColor=#f5f5f5;strokeColor=#666666;fontColor=#333333;" vertex="1" parent="1">
          <mxGeometry x="210" y="160" width="120" height="30" as="geometry" />
        </mxCell>
        <mxCell id="R-yZlWLyrwHYnsbiBoYi-22" value="" style="edgeStyle=orthogonalEdgeStyle;rounded=0;orthogonalLoop=1;jettySize=auto;html=1;fontSize=8;" edge="1" parent="1" source="R-yZlWLyrwHYnsbiBoYi-21" target="R-yZlWLyrwHYnsbiBoYi-7">
          <mxGeometry relative="1" as="geometry" />
        </mxCell>
        <mxCell id="R-yZlWLyrwHYnsbiBoYi-21" value="Designates how we want to inspect the &quot;subject&quot;" style="rounded=1;whiteSpace=wrap;html=1;fontSize=8;fillColor=#fff2cc;strokeColor=#d6b656;" vertex="1" parent="1">
          <mxGeometry x="420" width="120" height="40" as="geometry" />
        </mxCell>
        <mxCell id="R-yZlWLyrwHYnsbiBoYi-25" value="" style="edgeStyle=orthogonalEdgeStyle;rounded=0;orthogonalLoop=1;jettySize=auto;html=1;fontSize=8;" edge="1" parent="1" source="R-yZlWLyrwHYnsbiBoYi-24" target="R-yZlWLyrwHYnsbiBoYi-10">
          <mxGeometry relative="1" as="geometry" />
        </mxCell>
        <mxCell id="R-yZlWLyrwHYnsbiBoYi-24" value="Expect value, its what we want our &quot;subject&quot; to be" style="rounded=1;whiteSpace=wrap;html=1;fontSize=8;fillColor=#d5e8d4;strokeColor=#82b366;" vertex="1" parent="1">
          <mxGeometry x="605" y="160" width="150" height="40" as="geometry" />
        </mxCell>
      </root>
    </mxGraphModel>
  </diagram>
</mxfile>
